<svg width="32" height="32" viewBox="0 0 32 32" fill="none" xmlns="http://www.w3.org/2000/svg">
<path fill-rule="evenodd" clip-rule="evenodd" d="M16 7.49687C13.6105 6.04388 11.1531 5.45835 7.87653 5.50474C7.82492 5.50547 7.77367 5.5061 7.72275 5.50673C6.94643 5.51634 6.24962 5.52497 5.61161 5.85806C5.07583 6.13777 4.59333 6.62715 4.32122 7.16684C4.13593 7.53434 4.06336 7.90705 4.0305 8.28661C3.99996 8.63936 3.99998 9.06061 4 9.53968C4 9.55257 4 9.56551 4 9.57848V19.9993C3.99999 20.5718 3.99998 21.0569 4.02964 21.4501C4.06028 21.8564 4.12769 22.2661 4.32162 22.6505C4.61848 23.2389 5.02901 23.6548 5.61342 23.9594C6.0061 24.1641 6.44414 24.2336 6.87178 24.2685C7.29767 24.3033 7.83441 24.3104 8.48147 24.3189L8.51735 24.3194C11.3769 24.3571 13.4038 24.9689 15.4453 26.3299C15.7812 26.5538 16.2188 26.5538 16.5547 26.3299C18.5962 24.9689 20.6231 24.3571 23.4826 24.3194L23.5185 24.3189C24.1656 24.3104 24.7023 24.3033 25.1282 24.2685C25.5559 24.2336 25.9939 24.1641 26.3866 23.9594C26.971 23.6548 27.3815 23.2389 27.6784 22.6505C27.8723 22.2661 27.9397 21.8564 27.9704 21.4501C28 21.0569 28 20.5718 28 19.9993V9.53969C28 9.06061 28 8.63936 27.9695 8.28661C27.9366 7.90705 27.8641 7.53434 27.6788 7.16684C27.4067 6.62715 26.9242 6.13777 26.3884 5.85806C25.7504 5.52497 25.0536 5.51634 24.2773 5.50673C24.2263 5.5061 24.1751 5.50547 24.1235 5.50474C20.8469 5.45835 18.3895 6.04388 16 7.49687ZM15 9.22956C12.9673 7.98343 10.8828 7.46238 7.90484 7.50454C6.8838 7.51899 6.70068 7.54564 6.5372 7.63098C6.3724 7.71702 6.19077 7.90124 6.10708 8.06725C6.07822 8.12448 6.04372 8.22026 6.02304 8.45911C6.00087 8.71529 6 9.04917 6 9.57848V19.9619C6 20.5819 6.00067 20.9908 6.02397 21.2997C6.04693 21.604 6.08672 21.709 6.10721 21.7496C6.21544 21.9641 6.32474 22.0748 6.53781 22.1859C6.56721 22.2012 6.67902 22.2461 7.03451 22.2752C7.38391 22.3037 7.85161 22.3104 8.54372 22.3195C11.0568 22.3527 13.0841 22.7947 15 23.7571V9.22956ZM17 23.7571C18.9159 22.7947 20.9432 22.3527 23.4563 22.3195C24.1484 22.3104 24.6161 22.3037 24.9655 22.2752C25.321 22.2461 25.4328 22.2012 25.4622 22.1859C25.6753 22.0748 25.7846 21.9641 25.8928 21.7496C25.9133 21.709 25.9531 21.604 25.976 21.2997C25.9993 20.9908 26 20.5819 26 19.9619V9.57848C26 9.04917 25.9991 8.71529 25.977 8.45911C25.9563 8.22026 25.9218 8.12448 25.8929 8.06725C25.8092 7.90124 25.6276 7.71702 25.4628 7.63098C25.2993 7.54564 25.1162 7.51899 24.0952 7.50454C21.1172 7.46238 19.0327 7.98343 17 9.22956V23.7571ZM23.9994 12.4623C24.0191 13.0142 23.5877 13.4777 23.0357 13.4974C22.0201 13.5337 21.1281 13.6802 20.3119 13.9481C19.7872 14.1204 19.2222 13.8347 19.0499 13.31C18.8776 12.7852 19.1633 12.2202 19.6881 12.0479C20.714 11.7111 21.7967 11.5404 22.9643 11.4987C23.5162 11.4789 23.9796 11.9104 23.9994 12.4623ZM8.00064 12.4623C8.02037 11.9104 8.48379 11.479 9.03572 11.4987C10.2033 11.5404 11.286 11.7111 12.3119 12.0479C12.8367 12.2202 13.1224 12.7853 12.9501 13.31C12.7778 13.8347 12.2128 14.1204 11.6881 13.9481C10.8719 13.6802 9.97993 13.5337 8.96429 13.4974C8.41235 13.4777 7.98091 13.0143 8.00064 12.4623ZM8.00064 17.4623C8.02037 16.9104 8.48379 16.479 9.03572 16.4987C10.2033 16.5404 11.286 16.7111 12.3119 17.0479C12.8367 17.2202 13.1224 17.7853 12.9501 18.31C12.7778 18.8347 12.2128 19.1204 11.6881 18.9481C10.8719 18.6802 9.97993 18.5337 8.96429 18.4974C8.41235 18.4777 7.98091 18.0143 8.00064 17.4623ZM23.9994 17.4623C24.0191 18.0143 23.5877 18.4777 23.0357 18.4974C22.0201 18.5337 21.1281 18.6802 20.3119 18.9481C19.7872 19.1204 19.2222 18.8347 19.0499 18.31C18.8776 17.7853 19.1633 17.2202 19.6881 17.0479C20.714 16.7111 21.7967 16.5404 22.9643 16.4987C23.5162 16.479 23.9796 16.9104 23.9994 17.4623Z" fill="#B0AFB5"/>
</svg>
