<svg width="33" height="32" viewBox="0 0 33 32" fill="none" xmlns="http://www.w3.org/2000/svg">
<path fill-rule="evenodd" clip-rule="evenodd" d="M15.4562 4.4978H17.5438C18.9068 4.49779 19.9908 4.49779 20.8654 4.56925C21.761 4.64242 22.5247 4.79548 23.2239 5.15176C24.3529 5.727 25.2708 6.64489 25.846 7.77386C26.2023 8.47311 26.3554 9.23678 26.4286 10.1324C26.5 11.007 26.5 12.091 26.5 13.454V22.0992C26.5 23.1061 26.5 23.9309 26.4419 24.5695C26.3844 25.2018 26.2582 25.8514 25.8523 26.3642C25.2889 27.076 24.4334 27.4944 23.5255 27.5022C22.8715 27.5077 22.2813 27.2085 21.7469 26.8658C21.2071 26.5196 20.556 26.0131 19.7612 25.3949L17.8507 23.9089C17.075 23.3057 16.908 23.1997 16.7613 23.16C16.5902 23.1137 16.4098 23.1137 16.2387 23.16C16.0921 23.1997 15.925 23.3057 15.1493 23.9089L13.2387 25.395C12.4439 26.0132 11.7929 26.5196 11.2531 26.8658C10.7187 27.2085 10.1285 27.5077 9.47448 27.5022C8.56665 27.4944 7.71115 27.076 7.1477 26.3642C6.74179 25.8514 6.61563 25.2018 6.55809 24.5695C6.49997 23.9309 6.49998 23.106 6.5 22.0991V13.454C6.49999 12.091 6.49999 11.007 6.57144 10.1324C6.64462 9.23678 6.79768 8.47311 7.15396 7.77386C7.7292 6.64489 8.64709 5.727 9.77606 5.15176C10.4753 4.79548 11.239 4.64242 12.1346 4.56925C13.0092 4.49779 14.0932 4.49779 15.4562 4.4978ZM12.2974 6.5626C11.5255 6.62567 11.0544 6.74509 10.684 6.93378C9.93139 7.31727 9.31947 7.92919 8.93597 8.68184C8.74729 9.05215 8.62787 9.52333 8.5648 10.2952C8.50078 11.0788 8.5 12.0812 8.5 13.4978V22.0487C8.5 23.1184 8.501 23.8513 8.54986 24.3882C8.60027 24.9421 8.69001 25.0902 8.7159 25.1229C8.90372 25.3602 9.18888 25.4997 9.49149 25.5022C9.53321 25.5026 9.70519 25.4825 10.1733 25.1823C10.6271 24.8912 11.2063 24.442 12.0507 23.7853L13.9215 22.3302C13.963 22.2979 14.0041 22.2658 14.0449 22.234C14.6222 21.7835 15.1282 21.3887 15.716 21.2295C16.2294 21.0905 16.7706 21.0905 17.284 21.2295C17.8718 21.3887 18.3778 21.7835 18.9551 22.234C18.9959 22.2658 19.037 22.2979 19.0785 22.3302L20.9493 23.7853C21.7937 24.442 22.3729 24.8912 22.8267 25.1823C23.2948 25.4825 23.4668 25.5026 23.5085 25.5022C23.8111 25.4997 24.0963 25.3602 24.2841 25.1229C24.31 25.0902 24.3997 24.9421 24.4501 24.3882C24.499 23.8513 24.5 23.1184 24.5 22.0487V13.4978C24.5 12.0812 24.4992 11.0788 24.4352 10.2952C24.3721 9.52333 24.2527 9.05215 24.064 8.68184C23.6805 7.92919 23.0686 7.31727 22.316 6.93378C21.9457 6.74509 21.4745 6.62567 20.7026 6.5626C19.919 6.49858 18.9166 6.4978 17.5 6.4978H15.5C14.0834 6.4978 13.081 6.49858 12.2974 6.5626Z" fill="#B0AFB5"/>
</svg>
