<svg width="33" height="32" viewBox="0 0 33 32" fill="none" xmlns="http://www.w3.org/2000/svg">
<path d="M6.39979 4.5814C5.7438 4.81045 5.22211 5.41105 5.05682 6.13381C5.02583 6.26106 5 7.07035 5 7.97126V9.58984H17.4535H29.9019L29.8864 7.92036L29.8709 6.25597L29.7211 5.95058C29.5196 5.54848 28.9876 5.0344 28.5537 4.81554C27.9649 4.52541 27.7944 4.49996 26.2707 4.49996H24.8915L24.876 5.78261C24.8605 6.97873 24.8554 7.08053 24.7572 7.20778C24.6488 7.36048 24.2975 7.55389 24.1374 7.55389C23.9773 7.55389 23.626 7.36048 23.5176 7.20778C23.4194 7.08053 23.4143 6.97873 23.3988 5.78261L23.3833 4.49996H17.1384H10.8884V5.72662C10.8884 6.8973 10.8833 6.96346 10.7748 7.15179C10.6353 7.3961 10.2893 7.57934 10.0517 7.53353C9.80372 7.48772 9.56612 7.31467 9.47314 7.12634C9.40599 6.98382 9.3905 6.74969 9.3905 5.72662V4.49996H8.01136C6.90083 4.50505 6.58058 4.52032 6.39979 4.5814Z" fill="#231F20"/>
<path d="M5 18.431C5 24.3353 5.0155 25.7452 5.07231 25.9538C5.24277 26.5901 5.625 27.0583 6.17769 27.3179L6.52376 27.4808L17.1384 27.4961C26.7355 27.5063 27.7789 27.5012 28.0372 27.4248C28.9205 27.1754 29.6333 26.5443 29.8915 25.7859C30 25.4754 30 25.4143 30 18.319V11.1677H17.5H5V18.431ZM12.2004 14.0893C12.2934 14.125 12.4174 14.2217 12.4793 14.298C12.5878 14.4304 12.593 14.4863 12.593 15.5298C12.593 16.7361 12.5723 16.843 12.2676 17.0211C12.1178 17.1127 12.0041 17.1229 11.0176 17.1229C9.85021 17.1229 9.76756 17.1076 9.57645 16.8531C9.47314 16.7157 9.46798 16.6445 9.46798 15.5705C9.46798 13.9824 9.42665 14.0232 11.0331 14.0232C11.7665 14.0181 12.0713 14.0384 12.2004 14.0893ZM18.3419 14.0893C18.4349 14.125 18.5537 14.2064 18.6105 14.2726C18.7087 14.3795 18.7138 14.4558 18.7138 15.601V16.8175L18.5692 16.9549L18.4298 17.0975H17.1952H15.9607L15.8264 16.9753C15.6095 16.7717 15.5785 16.5732 15.5992 15.4585C15.6198 13.9977 15.594 14.0232 17.1798 14.0232C17.9081 14.0181 18.218 14.0384 18.3419 14.0893ZM24.6126 14.0995C24.9483 14.2624 24.9638 14.3184 24.9638 15.545C24.9638 16.1456 24.9483 16.7055 24.9225 16.7819C24.9019 16.8582 24.8089 16.9651 24.7159 17.0211C24.5661 17.1127 24.4525 17.1229 23.4246 17.1229C21.7717 17.1229 21.8388 17.1891 21.8388 15.5552C21.8388 14.4863 21.844 14.4304 21.9525 14.298C22.1488 14.0486 22.2934 14.0232 23.4039 14.0181C24.2562 14.0181 24.4628 14.0333 24.6126 14.0995ZM12.2831 21.0167C12.5775 21.1643 12.5981 21.2864 12.5826 22.508C12.562 24.0706 12.6136 24.0197 10.9659 24.0197C9.91736 24.0197 9.87603 24.0146 9.71591 23.9026C9.46798 23.7296 9.43182 23.5209 9.45248 22.3604C9.46798 21.434 9.47831 21.3424 9.57645 21.2101C9.76756 20.9556 9.85021 20.9403 11.0331 20.9403C11.9163 20.9403 12.1643 20.9556 12.2831 21.0167ZM18.4298 21.0167C18.7138 21.1643 18.7397 21.2813 18.7397 22.5029C18.7397 24.1062 18.7913 24.0655 17.0558 24.035C15.5682 24.0146 15.594 24.0401 15.594 22.4775C15.5888 21.4035 15.6198 21.2457 15.8729 21.0523C16.0124 20.9454 16.064 20.9403 17.1488 20.9403C18.0579 20.9403 18.311 20.9556 18.4298 21.0167ZM24.6229 21.0065C24.6901 21.037 24.7986 21.1337 24.8554 21.2101C24.9587 21.3475 24.9638 21.4188 24.9638 22.4927C24.9638 24.0808 25.0052 24.0401 23.3988 24.0401C22.3089 24.0451 22.1488 24.0146 21.9525 23.7652C21.844 23.6278 21.8388 23.5769 21.8388 22.508C21.8388 20.8792 21.7717 20.9454 23.3884 20.9454C24.1684 20.9403 24.5351 20.9607 24.6229 21.0065Z" fill="#231F20"/>
</svg>
