<svg width="18" height="18" viewBox="0 0 18 18" fill="none" xmlns="http://www.w3.org/2000/svg">
<path d="M0.180176 9C1.00925 7.37372 2.27182 6.00832 3.82835 5.05471C5.38487 4.10109 7.17476 3.5964 9.00018 3.5964C10.8256 3.5964 12.6155 4.10109 14.172 5.05471C15.7285 6.00832 16.9911 7.37372 17.8202 9C16.9911 10.6263 15.7285 11.9917 14.172 12.9453C12.6155 13.8989 10.8256 14.4036 9.00018 14.4036C7.17476 14.4036 5.38487 13.8989 3.82835 12.9453C2.27182 11.9917 1.00925 10.6263 0.180176 9ZM9.00018 12.6C9.95496 12.6 10.8706 12.2207 11.5458 11.5456C12.2209 10.8705 12.6002 9.95478 12.6002 9C12.6002 8.04522 12.2209 7.12955 11.5458 6.45441C10.8706 5.77928 9.95496 5.4 9.00018 5.4C8.0454 5.4 7.12972 5.77928 6.45459 6.45441C5.77946 7.12955 5.40018 8.04522 5.40018 9C5.40018 9.95478 5.77946 10.8705 6.45459 11.5456C7.12972 12.2207 8.0454 12.6 9.00018 12.6ZM9.00018 10.8C8.52279 10.8 8.06495 10.6104 7.72738 10.2728C7.38982 9.93523 7.20018 9.47739 7.20018 9C7.20018 8.52261 7.38982 8.06477 7.72738 7.72721C8.06495 7.38964 8.52279 7.2 9.00018 7.2C9.47757 7.2 9.9354 7.38964 10.273 7.72721C10.6105 8.06477 10.8002 8.52261 10.8002 9C10.8002 9.47739 10.6105 9.93523 10.273 10.2728C9.9354 10.6104 9.47757 10.8 9.00018 10.8Z" fill="#231F20"/>
</svg>
