<svg width="21" height="20" viewBox="0 0 21 20" fill="none" xmlns="http://www.w3.org/2000/svg">
<path d="M8.18519 2.5H3.64815C3.29019 2.5 3 2.79019 3 3.14815V7.68519C3 8.04315 3.29019 8.33333 3.64815 8.33333H8.18519C8.54315 8.33333 8.83333 8.04315 8.83333 7.68519V3.14815C8.83333 2.79019 8.54315 2.5 8.18519 2.5Z" stroke="#868686" stroke-width="1.5" stroke-linecap="round" stroke-linejoin="round"/>
<path d="M8.18519 11.6667H3.64815C3.29019 11.6667 3 11.9569 3 12.3148V16.8519C3 17.2098 3.29019 17.5 3.64815 17.5H8.18519C8.54315 17.5 8.83333 17.2098 8.83333 16.8519V12.3148C8.83333 11.9569 8.54315 11.6667 8.18519 11.6667Z" stroke="#868686" stroke-width="1.5" stroke-linecap="round" stroke-linejoin="round"/>
<path d="M17.3517 2.5H12.8147C12.4567 2.5 12.1665 2.79019 12.1665 3.14815V7.68519C12.1665 8.04315 12.4567 8.33333 12.8147 8.33333H17.3517C17.7097 8.33333 17.9998 8.04315 17.9998 7.68519V3.14815C17.9998 2.79019 17.7097 2.5 17.3517 2.5Z" stroke="#868686" stroke-width="1.5" stroke-linecap="round" stroke-linejoin="round"/>
<path d="M17.3517 11.6667H12.8147C12.4567 11.6667 12.1665 11.9569 12.1665 12.3148V16.8519C12.1665 17.2098 12.4567 17.5 12.8147 17.5H17.3517C17.7097 17.5 17.9998 17.2098 17.9998 16.8519V12.3148C17.9998 11.9569 17.7097 11.6667 17.3517 11.6667Z" stroke="#868686" stroke-width="1.5" stroke-linecap="round" stroke-linejoin="round"/>
</svg>
