<svg width="33" height="32" viewBox="0 0 33 32" fill="none" xmlns="http://www.w3.org/2000/svg">
<path d="M25.1625 7.66946C24.6331 7.12966 24.0045 6.70146 23.3126 6.40931C22.6208 6.11717 21.8793 5.9668 21.1304 5.9668C20.3815 5.9668 19.64 6.11717 18.9481 6.40931C18.2563 6.70146 17.6277 7.12966 17.0983 7.66946L15.9996 8.78919L14.9008 7.66946C13.8315 6.57962 12.3811 5.96736 10.8687 5.96736C9.35642 5.96736 7.90603 6.57962 6.83665 7.66946C5.76727 8.75929 5.1665 10.2374 5.1665 11.7787C5.1665 13.3199 5.76727 14.7981 6.83665 15.8879L7.93537 17.0076L15.9996 25.2261L24.0637 17.0076L25.1625 15.8879C25.6921 15.3483 26.1123 14.7077 26.399 14.0027C26.6856 13.2976 26.8332 12.5419 26.8332 11.7787C26.8332 11.0155 26.6856 10.2597 26.399 9.55467C26.1123 8.8496 25.6921 8.20899 25.1625 7.66946Z" fill="#231F20" stroke="#231F20" stroke-width="2" stroke-linecap="round" stroke-linejoin="round"/>
</svg>
