<svg width="32" height="32" viewBox="0 0 32 32" fill="none" xmlns="http://www.w3.org/2000/svg">
<path d="M19.5381 7.02325C19.0555 7.10862 18.5767 7.34034 18.2346 7.66149C17.8584 8.01517 17.524 8.6209 17.353 9.26728C17.2465 9.65754 17.2123 10.4625 17.2731 10.934C17.3834 11.7146 17.6418 12.552 17.9496 13.1008C18.5577 14.1903 19.5913 15.044 20.5528 15.2554C20.9215 15.3367 21.1571 15.3367 21.5219 15.2554C22.51 15.04 23.2282 14.235 23.5361 13.0155C23.6273 12.6577 23.6387 12.548 23.6387 11.926C23.6349 11.3284 23.6235 11.1739 23.5399 10.7836C23.1978 9.21849 22.3808 8.03144 21.1913 7.37286C20.6516 7.0761 20.017 6.94194 19.5381 7.02325Z" fill="#231F20"/>
<path d="M8.17537 11.8529C6.03579 12.1334 4.42826 13.227 3.20456 15.2393C2.5281 16.3572 2.17087 17.5768 2.03786 19.2639C1.96565 20.1867 1.99986 21.9958 2.11387 23.2479C2.15947 23.7032 2.29628 24.7317 2.33048 24.8333C2.34188 24.8658 2.42169 24.5081 2.5129 24.0406C2.95374 21.7112 3.48198 19.9143 4.13944 18.5118C4.47766 17.7882 4.8539 17.2841 5.32514 16.9264C6.65905 15.91 8.30079 16.0605 11.417 17.4792C13.1424 18.2679 16.2168 19.8534 18.1322 20.951C18.5084 21.1664 19.3939 21.6746 20.1008 22.0771C21.4803 22.8657 22.2822 23.2763 23.1866 23.6625C24.9272 24.4065 27.0896 25 28.051 25C28.5413 25 28.8035 24.935 29.1797 24.7236C29.6168 24.4796 29.8942 24.0772 29.9778 23.5568C30.1108 22.7519 29.6358 20.9551 28.8263 19.2111C28.4957 18.4996 27.7546 17.0727 27.7242 17.093C27.709 17.1012 27.728 17.2353 27.766 17.3857C27.8078 17.5362 27.9408 18.0484 28.0662 18.524C28.4121 19.8371 28.4653 20.1298 28.4691 20.7477C28.4691 21.2356 28.4615 21.2925 28.3741 21.4795C28.1765 21.8941 27.7888 21.9632 27.101 21.7031C26.6563 21.5323 26.0825 21.2437 25.6112 20.951C25.064 20.6054 22.9472 19.0728 18.8429 16.0442C16.7375 14.4913 14.5941 13.3083 12.6255 12.6172C11.5463 12.235 10.6608 11.9952 9.92352 11.8854C9.58149 11.8326 8.4832 11.8123 8.17537 11.8529Z" fill="#231F20"/>
</svg>
