<svg width="28" height="28" viewBox="0 0 28 28" fill="none" xmlns="http://www.w3.org/2000/svg">
<path d="M13.6369 1.26172C13.7532 0.912759 14.2468 0.912759 14.3631 1.26172L14.6543 2.13528C14.8448 2.70676 15.2932 3.1552 15.8647 3.34569L16.7383 3.63688C17.0872 3.7532 17.0872 4.2468 16.7383 4.36312L15.8647 4.65431C15.2932 4.8448 14.8448 5.29324 14.6543 5.86472L14.3631 6.73828C14.2468 7.08724 13.7532 7.08724 13.6369 6.73828L13.3457 5.86472C13.1552 5.29324 12.7068 4.8448 12.1353 4.65431L11.2617 4.36312C10.9128 4.2468 10.9128 3.7532 11.2617 3.63688L12.1353 3.34569C12.7068 3.1552 13.1552 2.70676 13.3457 2.13528L13.6369 1.26172Z" fill="#B0AFB5"/>
<path d="M20.3948 4.43621C20.5886 3.8546 21.4113 3.8546 21.6052 4.43621L22.0905 5.89214C22.408 6.84461 23.1554 7.592 24.1078 7.90949L25.5638 8.3948C26.1454 8.58867 26.1454 9.41134 25.5638 9.60521L24.1078 10.0905C23.1554 10.408 22.408 11.1554 22.0905 12.1079L21.6052 13.5638C21.4113 14.1454 20.5886 14.1454 20.3948 13.5638L19.9094 12.1079C19.592 11.1554 18.8446 10.408 17.8922 10.0905L16.4362 9.60521C15.8546 9.41134 15.8546 8.58867 16.4362 8.3948L17.8922 7.90949C18.8446 7.592 19.592 6.84461 19.9094 5.89214L20.3948 4.43621Z" fill="#B0AFB5"/>
<path d="M20.0317 18.6175C20.3453 18.2248 20.6265 17.8055 20.8716 17.3633C21.1393 16.8802 20.9648 16.2716 20.4818 16.0039C19.9987 15.7361 19.3901 15.9106 19.1223 16.3937C18.6048 17.3273 17.8806 18.1303 17.005 18.7411C16.1295 19.3518 15.1259 19.7543 14.0709 19.9176C13.0159 20.0809 11.9376 20.0008 10.9184 19.6833C9.89915 19.3659 8.96602 18.8195 8.19039 18.086C7.41475 17.3525 6.81715 16.4514 6.4433 15.4514C6.06944 14.4515 5.92924 13.3793 6.03341 12.3169C6.13758 11.2545 6.48337 10.23 7.04432 9.3217C7.60528 8.41343 8.36654 7.6455 9.26987 7.07664C9.73721 6.78235 9.87748 6.16492 9.58318 5.69758C9.28889 5.23024 8.67145 5.08996 8.20412 5.38426C7.04269 6.11565 6.06393 7.10299 5.3427 8.27075C4.62148 9.43852 4.17689 10.7558 4.04295 12.1218C3.90902 13.4877 4.08928 14.8663 4.56995 16.1519C5.05062 17.4375 5.81897 18.5961 6.81621 19.5392C7.81346 20.4822 9.01319 21.1847 10.3236 21.5928C11.6341 22.001 13.0205 22.104 14.3769 21.8941C15.7332 21.6841 17.0236 21.1667 18.1493 20.3814C18.3094 20.2697 18.4655 20.1531 18.6174 20.0317L23.2929 24.7071C23.6834 25.0976 24.3166 25.0976 24.7071 24.7071C25.0976 24.3166 25.0976 23.6834 24.7071 23.2929L20.0317 18.6175Z" fill="#B0AFB5"/>
</svg>
