<svg width="18" height="18" viewBox="0 0 18 18" fill="none" xmlns="http://www.w3.org/2000/svg">
<path d="M13.5 6V4.5C13.5 3.30653 13.0259 2.16193 12.182 1.31802C11.3381 0.474106 10.1935 0 9 0C7.80653 0 6.66193 0.474106 5.81802 1.31802C4.97411 2.16193 4.5 3.30653 4.5 4.5V6C3.90381 6.00178 3.33255 6.2394 2.91098 6.66098C2.48941 7.08255 2.25178 7.65381 2.25 8.25V13.5C2.25 14.6935 2.72411 15.8381 3.56802 16.682C4.41193 17.5259 5.55653 18 6.75 18H11.25C12.4435 18 13.5881 17.5259 14.432 16.682C15.2759 15.8381 15.75 14.6935 15.75 13.5V8.25C15.7482 7.65381 15.5106 7.08255 15.089 6.66098C14.6675 6.2394 14.0962 6.00178 13.5 6ZM6 4.5C6 3.70435 6.31607 2.94129 6.87868 2.37868C7.44129 1.81607 8.20435 1.5 9 1.5C9.79565 1.5 10.5587 1.81607 11.1213 2.37868C11.6839 2.94129 12 3.70435 12 4.5V6H6V4.5ZM9.75 13.5C9.75 13.6989 9.67098 13.8897 9.53033 14.0303C9.38968 14.171 9.19891 14.25 9 14.25C8.80109 14.25 8.61032 14.171 8.46967 14.0303C8.32902 13.8897 8.25 13.6989 8.25 13.5V10.5C8.25 10.3011 8.32902 10.1103 8.46967 9.96967C8.61032 9.82902 8.80109 9.75 9 9.75C9.19891 9.75 9.38968 9.82902 9.53033 9.96967C9.67098 10.1103 9.75 10.3011 9.75 10.5V13.5Z" fill="#231F20"/>
</svg>
