<svg width="32" height="32" viewBox="0 0 32 32" fill="none" xmlns="http://www.w3.org/2000/svg">
<path d="M16 9.20349C18.7439 9.20349 20.9667 11.4263 20.9667 14.1702C20.9667 16.914 18.7439 19.1369 16 19.1369C13.2561 19.1369 11.0333 16.914 11.0333 14.1702C11.0333 11.4263 13.2561 9.20349 16 9.20349ZM16 11.2947C14.4111 11.2947 13.1246 12.5813 13.1246 14.1702C13.1246 15.7591 14.4111 17.0456 16 17.0456C17.5889 17.0456 18.8755 15.7591 18.8755 14.1702C18.8755 12.5813 17.5889 11.2947 16 11.2947Z" fill="#B0AFB5"/>
<path fill-rule="evenodd" clip-rule="evenodd" d="M24.2747 5.32009C23.1943 4.74227 22.1523 4.52163 20.1048 4.5H11.8952C9.84769 4.52163 8.8057 4.74227 7.72529 5.32009C6.69108 5.87318 5.87318 6.69108 5.32009 7.72529C4.74227 8.8057 4.52163 9.84769 4.5 11.8952V20.1048C4.52163 22.1523 4.74227 23.1943 5.32009 24.2747C5.87318 25.3089 6.69108 26.1268 7.72529 26.6799C8.8057 27.2577 9.84769 27.4784 11.8952 27.5H20.1048C22.1523 27.4784 23.1943 27.2577 24.2747 26.6799C25.3089 26.1268 26.1268 25.3089 26.6799 24.2747C27.2577 23.1943 27.4784 22.1523 27.5 20.1048V11.8952C27.4784 9.84769 27.2577 8.8057 26.6799 7.72529C26.1268 6.69108 25.3089 5.87318 24.2747 5.32009ZM8.71151 7.16416C9.42378 6.78324 10.1164 6.62388 11.6631 6.59455H20.3369C21.8836 6.62388 22.5762 6.78324 23.2885 7.16416C23.9583 7.52236 24.4776 8.04174 24.8358 8.71151C25.2168 9.42378 25.3761 10.1164 25.4055 11.6631V20.3369C25.3761 21.8836 25.2168 22.5762 24.8358 23.2885C24.7516 23.4459 24.6585 23.5951 24.5566 23.7358C22.2202 21.8408 19.2427 20.7053 16 20.7053C12.7573 20.7053 9.77978 21.8408 7.44338 23.7358C7.34149 23.5951 7.24837 23.446 7.16416 23.2885C6.78324 22.5762 6.62388 21.8836 6.59455 20.3369V11.6631C6.62388 10.1164 6.78324 9.42378 7.16416 8.71151C7.52236 8.04174 8.04174 7.52236 8.71151 7.16416ZM16 9.20349C18.7439 9.20349 20.9667 11.4263 20.9667 14.1702C20.9667 16.914 18.7439 19.1369 16 19.1369C13.2561 19.1369 11.0333 16.914 11.0333 14.1702C11.0333 11.4263 13.2561 9.20349 16 9.20349ZM11.6631 25.4055H20.3369C21.5595 25.3823 22.2484 25.2778 22.8353 25.047C20.9243 23.6328 18.5598 22.7965 16 22.7965C13.4402 22.7965 11.0757 23.6328 9.16474 25.047C9.75156 25.2778 10.4405 25.3823 11.6631 25.4055ZM13.1246 14.1702C13.1246 12.5813 14.4111 11.2947 16 11.2947C17.5889 11.2947 18.8755 12.5813 18.8755 14.1702C18.8755 15.7591 17.5889 17.0456 16 17.0456C14.4111 17.0456 13.1246 15.7591 13.1246 14.1702Z" fill="#B0AFB5"/>
</svg>
