<svg width="33" height="32" viewBox="0 0 33 32" fill="none" xmlns="http://www.w3.org/2000/svg">
<path d="M19.2605 14.6626C18.4434 15.2086 17.4827 15.5 16.5 15.5C15.1822 15.5 13.9184 14.9765 12.9866 14.0447C12.0547 13.1129 11.5312 11.849 11.5312 10.5313C11.5312 9.54853 11.8227 8.58787 12.3686 7.77076C12.9146 6.95366 13.6906 6.3168 14.5985 5.94073C15.5065 5.56465 16.5055 5.46626 17.4694 5.65798C18.4332 5.8497 19.3185 6.32292 20.0134 7.01782C20.7083 7.71271 21.1816 8.59805 21.3733 9.5619C21.565 10.5257 21.4666 11.5248 21.0905 12.4327C20.7145 13.3406 20.0776 14.1166 19.2605 14.6626Z" fill="#231F20" stroke="#231F20"/>
<path d="M15.7188 18.0625H17.2812C19.4278 18.0625 21.4865 18.9152 23.0044 20.4331C24.5223 21.951 25.375 24.0097 25.375 26.1562C25.375 26.2308 25.3454 26.3024 25.2926 26.3551C25.2399 26.4079 25.1683 26.4375 25.0938 26.4375H7.90625C7.83166 26.4375 7.76012 26.4079 7.70738 26.3551L7.35598 26.7065L7.70738 26.3551C7.65463 26.3024 7.625 26.2308 7.625 26.1562C7.625 24.0097 8.47773 21.951 9.9956 20.4331C11.5135 18.9152 13.5722 18.0625 15.7188 18.0625Z" fill="#231F20" stroke="#231F20"/>
</svg>
