<svg width="17" height="17" viewBox="0 0 17 17" fill="none" xmlns="http://www.w3.org/2000/svg">
<path d="M7.02174 1.25619e-07H6.62065C5.61297 -5.82434e-06 4.81139 -1.05789e-05 4.16468 0.0530401C3.50234 0.107373 2.93743 0.221044 2.4203 0.485663C1.58559 0.912786 0.907533 1.59401 0.482787 2.43119C0.219851 2.94943 0.106834 3.51548 0.0527854 4.17983C-9.21864e-06 4.82876 -4.97528e-06 5.6332 3.66632e-07 6.64517V12.9922C-1.09669e-05 13.7399 -2.02463e-05 14.3519 0.0429121 14.8257C0.0854027 15.2945 0.178475 15.7755 0.477786 16.1552C0.893786 16.683 1.52628 16.9942 2.1985 16.9999C2.68282 17.0041 3.11952 16.7816 3.51435 16.5273C3.91332 16.2703 4.39455 15.8944 4.98199 15.4355L6.39419 14.3325C6.96766 13.8845 7.09098 13.8061 7.19891 13.7767C7.32492 13.7425 7.45769 13.7425 7.58371 13.7767C7.69163 13.8061 7.81495 13.8845 8.38842 14.3325L9.80062 15.4355C10.3881 15.8944 10.8693 16.2703 11.2683 16.5273C11.6631 16.7816 12.0998 17.0041 12.5841 16.9999C13.2563 16.9942 13.8888 16.683 14.3048 16.1552C14.6041 15.7755 14.6972 15.2945 14.7397 14.8257C14.7826 14.3519 14.7826 13.7399 14.7826 12.9922V10.9827C14.7826 10.5745 14.4517 10.2436 14.0435 10.2436C13.6353 10.2436 13.3043 10.5745 13.3043 10.9827V12.9551C13.3043 13.749 13.3036 14.2934 13.2675 14.6922C13.2302 15.1038 13.1637 15.215 13.1438 15.2402C13.0045 15.4169 12.7939 15.5198 12.5715 15.5217C12.5416 15.522 12.4149 15.5075 12.0687 15.2845C11.7333 15.0685 11.3052 14.735 10.6811 14.2475L9.29839 13.1675L9.20699 13.0959C8.78049 12.7617 8.40635 12.4685 7.97158 12.3503C7.59159 12.2469 7.19102 12.2469 6.81103 12.3503C6.37626 12.4685 6.00212 12.7617 5.57562 13.0959L5.48422 13.1675L4.10146 14.2475C3.47736 14.735 3.04928 15.0685 2.71387 15.2845C2.36768 15.5075 2.24103 15.522 2.21113 15.5217C1.98868 15.5198 1.77807 15.4169 1.63879 15.2402C1.61894 15.215 1.55244 15.1038 1.51514 14.6922C1.47899 14.2934 1.47826 13.749 1.47826 12.9551V6.67743C1.47826 5.62598 1.47883 4.88167 1.52618 4.2997C1.57283 3.72627 1.66121 3.37571 1.80108 3.10003C2.08496 2.5405 2.53763 2.08618 3.09369 1.80164C3.3671 1.66174 3.71506 1.57315 4.28554 1.52635C4.86473 1.47884 5.60567 1.47826 6.65311 1.47826H7.02174C7.42995 1.47826 7.76087 1.14734 7.76087 0.739131C7.76087 0.33092 7.42995 1.25619e-07 7.02174 1.25619e-07Z" fill="#B0AFB5"/>
<path fill-rule="evenodd" clip-rule="evenodd" d="M17 4.43478C17 1.98552 15.0145 1.25619e-07 12.5652 1.25619e-07C10.116 1.25619e-07 8.13044 1.98552 8.13044 4.43478C8.13044 6.88405 10.116 8.86957 12.5652 8.86957C15.0145 8.86957 17 6.88405 17 4.43478ZM11.8311 2.13119C11.8738 1.7636 12.1862 1.47826 12.5652 1.47826C12.9734 1.47826 13.3043 1.80918 13.3043 2.21739V3.69565H14.7826L14.8688 3.70062C15.2364 3.74332 15.5217 4.05573 15.5217 4.43478C15.5217 4.84299 15.1908 5.17391 14.7826 5.17391H13.3043V6.65217L13.2994 6.73837C13.2567 7.10597 12.9443 7.3913 12.5652 7.3913C12.157 7.3913 11.8261 7.06038 11.8261 6.65217V5.17391H10.3478L10.2616 5.16894C9.89403 5.12625 9.6087 4.81384 9.6087 4.43478C9.6087 4.02657 9.93962 3.69565 10.3478 3.69565H11.8261V2.21739L11.8311 2.13119Z" fill="#B0AFB5"/>
</svg>
