<svg width="20" height="21" viewBox="0 0 20 21" fill="none" xmlns="http://www.w3.org/2000/svg">
<path d="M9.99999 4.78577C14.2815 4.78577 18.2143 8.04051 18.2143 10.5001C18.2143 12.9596 14.2815 16.2143 9.99999 16.2143C5.71852 16.2143 1.78571 12.9596 1.78571 10.5001C1.78571 8.04051 5.71852 4.78577 9.99999 4.78577ZM9.99999 6.21434C6.45408 6.21434 3.21428 8.89556 3.21428 10.5001C3.21428 12.1045 6.45408 14.7858 9.99999 14.7858C13.5459 14.7858 16.7857 12.1045 16.7857 10.5001C16.7857 8.89556 13.5459 6.21434 9.99999 6.21434ZM9.99999 7.64291C11.5779 7.64291 12.8571 8.9221 12.8571 10.5001C12.8571 12.078 11.5779 13.3572 9.99999 13.3572C8.42203 13.3572 7.14285 12.078 7.14285 10.5001C7.14285 8.9221 8.42203 7.64291 9.99999 7.64291ZM9.99999 9.07148C9.21101 9.07148 8.57142 9.71107 8.57142 10.5001C8.57142 11.289 9.21101 11.9286 9.99999 11.9286C10.789 11.9286 11.4286 11.289 11.4286 10.5001C11.4286 9.71107 10.789 9.07148 9.99999 9.07148Z" fill="black" fill-opacity="0.25"/>
</svg>
